<?xml version="1.0" standalone="no"?>
<!DOCTYPE svg PUBLIC "-//W3C//DTD SVG 20010904//EN"
 "http://www.w3.org/TR/2001/REC-SVG-20010904/DTD/svg10.dtd">
<svg version="1.0" xmlns="http://www.w3.org/2000/svg"
 width="512.000000pt" height="512.000000pt" viewBox="0 0 512.000000 512.000000"
 preserveAspectRatio="xMidYMid meet">
<metadata>
Created by potrace 1.14, written by Peter Selinger 2001-2017
</metadata>
<g transform="translate(0.000000,512.000000) scale(0.100000,-0.100000)"
fill="#000000" stroke="none">
<path d="M2585 4390 c-5 -8 55 -3 63 4 2 3 -10 4 -27 4 -18 -1 -34 -4 -36 -8z"/>
<path d="M2548 4362 c-21 -2 -38 -8 -38 -13 0 -10 66 -6 77 5 10 9 1 11 -39 8z"/>
<path d="M2568 4328 c-2 -5 -19 -10 -38 -11 -35 -3 -120 -36 -120 -47 0 -3 18
-4 40 -2 22 2 37 8 34 13 -3 5 2 9 10 9 9 0 15 -5 14 -11 -2 -6 3 -14 11 -17
8 -2 11 0 8 5 -4 6 11 10 34 11 29 1 38 -2 34 -11 -4 -6 -1 -5 7 3 13 15 47
17 101 7 16 -4 25 -2 22 4 -4 5 -10 7 -15 4 -5 -3 -11 -1 -15 5 -3 5 -1 10 4
10 20 0 11 19 -11 26 -33 10 -117 11 -120 2z"/>
<path d="M2285 4252 c-8 -21 -7 -21 18 -16 12 3 27 6 32 7 6 1 10 7 10 12 0
15 -54 12 -60 -3z"/>
<path d="M2559 4238 c-10 -4 -27 -4 -36 -1 -10 4 -14 2 -9 -5 3 -6 2 -13 -4
-17 -5 -3 -10 -1 -10 4 0 6 -8 11 -17 11 -15 0 -16 -2 -3 -10 13 -8 12 -10 -2
-10 -10 0 -18 4 -18 8 0 5 -7 9 -15 9 -19 0 -19 -13 0 -21 14 -5 108 0 173 10
44 7 42 30 -4 29 -19 0 -44 -3 -55 -7z"/>
<path d="M2180 4228 c0 -10 17 -9 50 2 21 7 20 8 -12 7 -21 -1 -38 -5 -38 -9z"/>
<path d="M2130 4210 c-40 -22 -37 -25 9 -9 17 6 31 15 31 20 0 11 2 12 -40
-11z"/>
<path d="M2310 4190 c0 -6 7 -10 15 -10 8 0 15 2 15 4 0 2 -7 6 -15 10 -8 3
-15 1 -15 -4z"/>
<path d="M2440 4180 c-13 -8 -12 -10 3 -10 9 0 17 5 17 10 0 12 -1 12 -20 0z"/>
<path d="M2355 4170 c-3 -5 -1 -10 4 -10 6 0 11 5 11 10 0 6 -2 10 -4 10 -3 0
-8 -4 -11 -10z"/>
<path d="M2380 4172 c0 -5 7 -9 15 -9 8 0 15 4 15 9 0 4 -7 8 -15 8 -8 0 -15
-4 -15 -8z"/>
<path d="M2010 4160 c-9 -6 -10 -10 -3 -10 6 0 15 5 18 10 8 12 4 12 -15 0z"/>
<path d="M2283 4151 c-62 -20 -80 -33 -26 -20 21 5 46 12 57 14 10 2 21 7 24
10 12 12 -6 11 -55 -4z"/>
<path d="M2466 4141 c-4 -5 3 -7 14 -4 23 6 26 13 6 13 -8 0 -17 -4 -20 -9z"/>
<path d="M2185 4120 c-3 -6 1 -7 9 -4 18 7 21 14 7 14 -6 0 -13 -4 -16 -10z"/>
<path d="M2390 4098 c-30 -5 -67 -9 -82 -10 -16 -1 -28 -6 -28 -10 0 -4 -3 -7
-7 -7 -20 3 -47 -3 -35 -8 17 -6 -15 -32 -40 -33 -9 0 -20 -4 -23 -10 -4 -6 1
-7 11 -3 12 4 15 3 10 -5 -4 -7 -12 -12 -17 -12 -6 0 -29 -9 -52 -21 -23 -11
-49 -22 -57 -24 -28 -8 -85 -30 -100 -40 -8 -5 -23 -11 -34 -12 -35 -6 -245
-113 -271 -139 -14 -13 -25 -22 -25 -18 0 4 -22 -17 -50 -45 -55 -57 -64 -62
-55 -28 5 19 4 20 -5 4 -6 -9 -9 -21 -5 -26 3 -5 1 -12 -5 -16 -5 -3 -10 -1
-10 5 0 7 -7 5 -16 -4 -9 -10 -13 -24 -9 -36 4 -13 -2 -32 -16 -53 -36 -50
-50 -61 -78 -62 -16 0 -29 -8 -37 -23 -6 -13 -15 -23 -20 -23 -5 0 -24 -23
-41 -52 -18 -29 -38 -59 -43 -67 -6 -8 -25 -43 -43 -77 -17 -34 -36 -62 -41
-62 -8 0 -28 -29 -41 -61 -21 -50 -26 -55 -21 -25 3 17 10 44 17 60 17 42 20
65 10 65 -5 0 -15 -16 -21 -35 -6 -19 -16 -35 -21 -35 -6 0 -6 8 1 19 5 11 10
26 10 33 -1 23 -35 -63 -76 -187 -35 -108 -39 -116 -42 -81 -2 21 0 46 3 55 3
9 6 16 6 16 -1 0 15 45 35 100 20 55 40 114 45 132 5 18 14 35 19 38 5 3 7 12
4 19 -3 8 -1 17 5 21 16 10 13 25 -4 19 -8 -3 -17 -14 -20 -25 -4 -11 -11 -17
-16 -14 -5 4 -9 -1 -9 -9 0 -8 -4 -17 -9 -20 -5 -4 -7 3 -4 14 3 11 1 20 -5
20 -5 0 -12 -9 -15 -20 -3 -11 -10 -20 -16 -20 -17 0 -13 47 8 88 17 33 35
102 26 102 -6 0 -47 -84 -67 -137 -19 -51 -35 -69 -35 -38 0 8 3 15 6 15 7 0
33 59 41 95 1 6 7 19 13 30 9 18 9 19 -6 6 -10 -7 -17 -18 -17 -23 0 -5 -11
-33 -24 -61 -13 -29 -31 -75 -40 -101 -9 -27 -20 -54 -24 -60 -4 -6 -7 -18 -7
-26 0 -8 -4 -21 -9 -29 -6 -10 -5 -12 2 -7 8 5 10 2 6 -8 -3 -9 -11 -13 -17
-9 -6 3 -7 1 -3 -6 10 -16 -3 -53 -16 -45 -6 4 -8 1 -6 -7 3 -8 0 -28 -7 -46
-8 -17 -11 -33 -9 -36 2 -2 -2 -19 -10 -38 -18 -44 -18 -42 -31 -128 -12 -75
-13 -413 -2 -461 4 -14 9 -38 12 -55 4 -16 10 -39 15 -50 14 -31 39 -125 34
-125 -3 0 1 -10 7 -22 11 -23 11 -23 -8 -3 -20 21 -35 50 -39 75 -1 8 -9 42
-17 75 -18 72 -31 161 -41 289 -6 72 -16 101 -17 50 -1 -85 1 -185 6 -234 4
-30 7 -66 8 -80 1 -14 4 -27 7 -30 16 -16 39 -70 31 -70 -6 0 -11 5 -11 12 0
6 -2 9 -5 7 -4 -5 27 -118 44 -154 5 -11 28 -65 52 -120 45 -103 157 -281 219
-348 19 -21 56 -61 81 -88 25 -27 51 -49 58 -49 7 0 10 -4 7 -9 -4 -5 -2 -11
3 -13 23 -8 178 -153 226 -211 17 -20 33 -37 37 -37 4 0 62 -37 128 -83 126
-86 130 -88 170 -105 47 -20 75 -25 136 -23 73 2 106 7 113 19 9 14 60 21 64
9 10 -30 167 59 188 107 5 12 21 36 34 55 29 39 47 99 41 132 -3 13 -5 35 -6
49 -1 14 -4 19 -7 12 -3 -9 -18 8 -37 41 -37 66 -67 101 -124 147 -42 33 -132
66 -132 48 0 -10 -63 22 -68 35 -7 14 -21 -4 -15 -19 5 -14 3 -15 -16 -4 -12
6 -37 12 -54 12 -18 0 -43 8 -57 18 -14 9 -34 19 -45 22 -11 3 -29 9 -40 13
-13 5 -7 -4 15 -24 l35 -32 -35 17 c-19 9 -49 27 -66 40 -17 13 -34 20 -38 17
-3 -4 -6 -1 -6 6 0 7 -5 9 -10 6 -6 -4 -17 -1 -25 5 -8 7 -21 10 -29 7 -8 -3
-18 5 -25 20 -6 13 -17 23 -23 21 -12 -4 -98 80 -98 97 0 6 -9 21 -20 35 -11
14 -20 32 -20 41 0 9 -7 22 -15 29 -13 11 -14 10 -9 -6 6 -17 5 -17 -16 2 -12
12 -23 33 -23 48 -1 16 -7 24 -14 21 -8 -2 -15 7 -19 23 -4 15 -11 33 -17 40
-5 6 -7 12 -4 12 3 0 -1 20 -9 45 -7 25 -9 43 -5 40 5 -2 12 -17 15 -31 4 -15
18 -36 31 -46 14 -11 24 -22 23 -26 -3 -8 18 -47 38 -70 7 -9 20 -26 28 -37 8
-11 17 -17 21 -13 4 3 -2 15 -13 26 -34 34 -55 81 -29 65 6 -4 4 5 -6 21 -15
22 -16 31 -6 40 9 8 10 8 5 -1 -3 -6 -3 -13 1 -15 5 -1 32 -34 60 -73 72 -96
99 -121 147 -135 22 -7 59 -21 81 -32 l40 -21 -20 23 c-11 12 -36 33 -55 46
-47 31 -88 70 -131 124 -48 61 -59 81 -24 48 15 -16 34 -28 42 -28 8 0 25 -11
38 -25 38 -37 30 -14 -10 29 -19 21 -33 41 -32 46 1 4 -10 22 -26 39 -31 36
-88 125 -91 144 -1 6 -5 17 -9 24 -13 21 -37 106 -47 168 -5 33 -11 70 -14 83
-5 23 8 30 19 11 9 -14 18 -84 18 -134 -1 -34 0 -36 7 -15 7 22 10 21 14 -9 0
-5 4 -12 8 -16 10 -10 1 51 -11 73 -13 24 -34 303 -24 328 6 16 5 17 -9 6 -14
-11 -16 -10 -11 7 3 12 1 21 -4 21 -6 0 -9 18 -8 40 1 22 -1 37 -6 35 -4 -3
-7 3 -6 14 0 11 6 19 11 18 6 -1 10 5 11 13 3 42 18 110 25 110 5 0 6 -10 4
-22 -4 -22 -4 -21 6 1 8 18 7 26 -1 32 -7 4 -9 14 -6 24 4 9 12 13 19 9 8 -5
9 -2 5 9 -4 11 -1 17 8 17 8 0 17 12 21 28 3 15 13 44 22 65 15 37 16 38 24
16 8 -20 13 -15 52 52 24 41 46 84 50 97 4 12 12 22 17 22 6 0 8 4 5 8 -2 4
-1 14 5 22 7 13 9 13 10 0 0 -8 4 -4 8 10 4 14 14 25 22 24 8 -1 16 8 16 18 2
21 20 48 31 46 21 -2 31 4 37 25 4 12 21 37 38 55 25 25 27 32 14 32 -10 0
-29 -11 -42 -25 -14 -13 -25 -19 -25 -11 0 7 11 23 24 35 14 13 29 36 35 52
13 37 4 38 -11 2 -10 -25 -12 -26 -15 -7 -3 17 -19 5 -99 -74 -97 -97 -130
-144 -118 -164 4 -7 3 -8 -5 -4 -6 4 -14 0 -18 -11 -4 -10 -12 -23 -17 -30 -6
-6 -24 -30 -40 -52 -43 -59 -44 -42 -2 19 19 28 33 57 30 64 -3 8 5 22 18 32
13 11 30 30 39 44 9 14 57 68 108 120 50 52 91 101 91 108 0 7 3 11 8 9 10 -6
62 50 53 58 -3 4 -1 6 4 4 17 -4 65 20 65 32 0 7 3 10 6 6 5 -5 58 21 217 105
10 5 15 13 12 19 -4 5 -15 4 -28 -3 -12 -7 -26 -12 -30 -13 -4 0 -11 -5 -15
-11 -7 -10 -84 -44 -100 -44 -4 0 20 16 53 34 33 19 63 32 67 30 5 -3 8 -1 8
5 0 14 32 19 52 7 12 -7 31 -5 68 8 58 21 80 15 27 -7 -54 -23 -51 -33 11 -30
56 2 57 2 28 -13 -15 -9 -38 -18 -51 -20 -34 -6 -96 -34 -112 -50 -8 -8 -20
-14 -26 -14 -7 0 -30 -16 -52 -36 -39 -35 -39 -35 -5 -13 19 13 37 26 40 30 3
5 21 11 39 14 19 3 43 10 53 16 11 6 30 13 43 15 19 3 22 1 18 -16 -3 -11 -8
-18 -12 -17 -3 2 -16 -7 -28 -20 -12 -13 -18 -23 -13 -23 5 0 12 5 15 10 4 6
10 8 15 5 5 -3 11 -1 14 3 3 5 20 8 38 7 18 -1 36 2 39 7 3 4 14 10 25 12 10
2 39 9 64 16 56 15 158 23 121 9 -26 -10 -85 -22 -113 -23 -10 0 -18 -3 -18
-6 0 -3 -22 -14 -49 -24 -28 -10 -55 -24 -62 -32 -6 -8 -17 -14 -25 -14 -7 0
-19 -6 -26 -12 -7 -7 -45 -29 -83 -48 -39 -19 -72 -38 -73 -43 -2 -4 -21 -10
-43 -13 -21 -4 -39 -10 -39 -14 0 -4 -8 -10 -17 -13 -24 -8 -71 -38 -97 -62
-12 -11 -40 -36 -63 -56 -37 -31 -61 -58 -131 -144 -69 -84 -144 -235 -132
-264 1 -2 -3 -7 -10 -11 -6 -4 -15 -38 -21 -76 -5 -38 -14 -70 -19 -72 -12 -4
-13 -32 -2 -32 9 0 32 59 32 82 0 8 14 40 30 71 17 31 30 66 30 77 0 11 4 20
10 20 5 0 13 18 16 40 4 22 11 37 16 34 5 -3 9 0 7 7 -1 8 -1 23 0 34 1 14 4
16 9 7 6 -9 14 0 25 29 15 38 18 40 34 28 9 -8 14 -9 11 -4 -8 12 46 87 56 78
3 -3 6 1 6 9 0 9 11 23 24 32 14 9 43 34 66 56 22 22 45 40 50 40 6 0 9 3 9 8
-1 4 -1 14 0 22 1 13 2 13 11 0 8 -13 11 -13 27 3 9 9 12 17 6 17 -6 0 -14 -5
-16 -10 -3 -6 -4 -5 -3 2 2 7 15 13 30 13 15 1 30 6 34 11 4 6 19 14 35 18 15
3 27 11 27 16 0 6 4 10 9 10 10 0 142 59 194 87 16 8 31 12 34 9 4 -3 15 1 25
11 10 9 18 13 18 10 0 -3 18 0 41 8 46 17 79 22 199 31 110 9 165 6 250 -11
14 -3 39 -8 55 -11 105 -18 234 -74 324 -140 36 -26 61 -41 56 -33 -5 8 1 6
13 -5 12 -10 19 -22 17 -27 -3 -4 0 -11 6 -15 8 -4 9 -3 5 4 -4 7 -4 12 1 12
10 0 133 -130 133 -140 0 -5 6 -15 13 -22 25 -26 61 -83 64 -101 2 -10 12 -30
23 -45 23 -32 83 -194 112 -302 30 -114 38 -172 44 -327 4 -125 3 -143 -10
-143 -11 0 -16 -9 -15 -27 0 -27 1 -27 9 -5 15 36 17 26 8 -35 -4 -32 -10 -74
-13 -93 -17 -128 -117 -358 -208 -480 -86 -115 -241 -275 -257 -265 -8 5 -1
14 19 26 42 26 39 33 -3 9 -19 -10 -36 -16 -39 -12 -2 4 -3 2 -1 -4 1 -6 -3
-18 -9 -25 -10 -11 -9 -11 4 -1 13 10 18 10 22 -2 4 -9 -5 -18 -24 -26 -29
-12 -42 -35 -14 -24 11 5 13 2 9 -10 -3 -9 -10 -16 -15 -16 -11 0 -17 -4 -75
-54 -23 -20 -46 -36 -52 -36 -6 0 -12 -4 -14 -8 -3 -8 -79 -55 -130 -81 -46
-23 -23 -24 28 -1 l48 21 -24 -28 -25 -27 31 25 c17 13 30 27 27 31 -2 4 3 5
11 2 10 -4 16 -1 16 9 0 8 8 17 18 21 92 33 122 40 122 27 0 -5 -13 -15 -30
-23 -17 -7 -30 -16 -30 -20 0 -5 -6 -8 -12 -8 -7 0 -26 -11 -42 -25 -16 -13
-37 -27 -47 -30 -11 -4 -19 -13 -19 -21 0 -8 -3 -13 -8 -10 -9 5 -47 -22 -40
-29 3 -3 12 0 20 7 14 13 33 20 55 21 7 0 10 4 7 9 -3 4 1 8 8 8 8 0 33 14 56
31 23 17 46 28 50 25 5 -3 24 8 42 24 19 17 39 30 46 30 7 0 14 4 16 8 3 9
118 75 118 68 0 -7 -161 -116 -171 -116 -5 0 -9 -6 -9 -13 0 -7 -25 -26 -55
-42 -30 -17 -55 -34 -55 -38 0 -5 -4 -5 -10 -2 -5 3 -10 2 -10 -3 0 -5 -14
-15 -30 -22 -32 -13 -49 -30 -28 -26 7 1 19 6 27 11 10 5 16 4 19 -4 2 -7 8
-8 15 -3 7 5 35 17 62 27 92 33 155 67 223 121 75 61 106 73 46 18 -47 -42
-257 -184 -273 -184 -6 0 -11 -4 -11 -9 0 -5 -10 -11 -22 -15 -13 -3 -35 -17
-50 -31 -15 -14 -32 -25 -37 -25 -5 0 -13 -5 -17 -12 -4 -6 -3 -8 3 -5 6 4 13
0 17 -8 6 -16 21 -13 98 25 47 23 58 24 58 10 0 -5 -8 -10 -17 -10 -10 0 -31
-9 -48 -20 -30 -20 -20 -28 13 -10 9 5 42 21 72 35 30 14 89 43 130 65 84 45
87 46 71 26 -11 -13 -41 -32 -189 -119 -18 -11 -31 -21 -29 -24 5 -5 100 44
142 73 17 11 50 32 75 45 25 13 47 26 50 29 3 3 21 17 40 30 19 13 40 29 45
35 6 6 21 19 35 30 20 16 22 17 11 2 -17 -21 -9 -31 17 -23 18 6 27 36 10 36
-5 0 -6 5 -3 11 5 6 12 4 20 -7 12 -17 13 -16 19 4 4 12 12 22 18 22 10 0 54
35 120 95 15 14 30 25 35 25 4 0 -39 -45 -95 -100 -56 -56 -100 -105 -97 -110
6 -10 -22 -40 -38 -40 -7 0 -1 9 13 20 14 11 20 20 14 20 -6 0 -27 -13 -45
-30 -19 -16 -29 -30 -22 -30 6 0 13 6 16 13 2 6 8 9 12 5 9 -9 -13 -38 -29
-38 -6 0 -20 -11 -30 -25 -10 -14 -25 -25 -32 -25 -8 0 -14 -4 -14 -10 0 -5
-6 -10 -14 -10 -8 0 -16 -4 -18 -8 -5 -12 -60 -49 -85 -56 -13 -4 -45 -22 -71
-39 -26 -18 -71 -43 -100 -57 -28 -14 -52 -28 -52 -32 0 -11 51 7 126 46 39
20 76 36 83 36 6 0 11 5 11 11 0 6 7 9 15 5 18 -7 47 3 40 14 -9 14 21 30 66
35 41 5 43 5 19 -8 -14 -8 -48 -28 -76 -45 -28 -18 -54 -32 -58 -32 -4 0 -35
-14 -69 -31 -34 -17 -77 -32 -95 -35 -17 -2 -40 -8 -50 -13 -30 -16 -100 -40
-134 -46 -18 -4 -37 -10 -42 -16 -13 -12 -9 -12 71 7 37 9 79 18 93 20 35 7
58 14 99 32 20 9 41 17 46 18 15 2 48 14 65 25 34 20 84 39 105 39 12 0 30 11
40 24 10 13 31 27 45 30 15 3 30 13 32 23 3 10 18 24 34 32 16 7 36 17 44 22
59 36 70 45 65 56 -2 7 9 16 28 21 32 9 134 99 139 123 3 14 33 51 83 104 40
43 61 69 76 96 6 13 20 32 30 43 11 11 19 24 19 29 0 5 13 29 30 54 16 24 30
51 30 59 0 7 5 14 11 14 6 0 8 9 4 21 -5 14 1 28 19 46 14 14 26 32 26 40 0 7
9 32 20 53 11 22 17 40 13 40 -5 0 -1 5 7 10 10 6 11 10 3 10 -7 0 -13 5 -13
11 0 5 4 8 9 5 5 -3 12 2 15 11 4 9 2 20 -5 23 -7 5 -3 15 13 30 12 13 17 19
9 15 -12 -7 -13 0 -6 36 4 24 8 51 10 59 1 8 5 22 8 30 33 83 76 353 57 365
-4 2 -4 25 0 49 4 25 3 49 -1 53 -5 5 -11 45 -14 88 -2 44 -6 89 -9 100 -2 11
-7 40 -10 65 -3 25 -9 56 -12 70 -3 14 -8 42 -11 63 -3 20 -10 37 -15 37 -5 0
-6 5 -3 10 11 18 -63 217 -129 350 -72 144 -169 289 -253 375 -32 33 -58 63
-59 68 -1 4 -2 12 -3 18 0 5 -5 8 -10 5 -14 -9 -43 5 -38 18 3 8 -5 11 -24 8
-16 -2 -29 -7 -29 -11 0 -15 -59 -2 -87 18 -15 12 -38 23 -51 26 -12 2 -35 12
-50 23 -34 24 -92 52 -114 57 -10 2 -27 13 -40 24 -12 12 -28 21 -35 21 -22 0
41 -55 93 -81 65 -33 99 -56 144 -100 20 -19 44 -38 53 -42 9 -3 17 -11 17
-17 0 -6 -5 -8 -12 -4 -7 4 -8 3 -4 -4 4 -6 13 -9 22 -5 8 3 14 1 12 -5 -2 -5
21 -35 50 -65 28 -30 52 -58 52 -60 0 -3 17 -32 38 -64 67 -101 84 -133 73
-133 -6 0 -11 5 -11 11 0 13 -48 84 -58 85 -4 0 -47 41 -97 90 -49 50 -106
101 -125 114 -19 14 -46 34 -59 47 -14 12 -28 20 -33 17 -4 -3 -8 -1 -8 3 0 5
-17 17 -37 28 -21 11 -51 29 -68 40 -50 34 -69 45 -95 55 -14 6 -42 19 -63 30
-22 11 -47 20 -56 20 -9 0 -21 4 -27 9 -12 11 -121 44 -199 61 -33 7 -67 15
-75 18 -21 7 -19 7 -72 15 -72 12 -247 15 -308 5z m381 -90 c3 -5 24 -11 45
-13 21 -1 52 -8 67 -14 16 -6 32 -11 37 -11 4 0 25 -9 47 -19 79 -39 115 -52
129 -47 18 7 94 -23 94 -37 0 -6 3 -7 6 -4 4 4 24 -7 45 -24 22 -17 39 -28 39
-25 0 3 13 -7 29 -22 16 -15 52 -47 80 -71 28 -25 49 -47 46 -49 -2 -2 -26 11
-52 30 -44 32 -219 140 -264 163 -10 5 -19 13 -19 17 0 5 -5 8 -12 8 -7 0 -55
13 -108 29 -52 17 -124 32 -158 35 -35 2 -71 11 -80 19 -19 16 -49 24 -137 32
-99 10 -77 17 45 14 63 -1 118 -7 121 -11z m759 -415 c0 -12 -2 -12 -15 1 -8
8 -15 17 -15 20 0 3 7 3 15 0 8 -4 15 -13 15 -21z m-185 -43 c27 -27 46 -50
43 -50 -12 0 -114 99 -103 100 6 0 33 -22 60 -50z m-1955 -82 c0 -7 -14 -31
-30 -52 -17 -22 -30 -49 -30 -61 0 -12 -9 -30 -20 -40 -12 -10 -18 -25 -16
-32 3 -7 0 -13 -5 -13 -6 0 -9 -9 -6 -20 3 -11 2 -18 -3 -15 -9 6 -43 -43 -43
-62 0 -17 -14 -17 -20 0 -3 6 -3 -9 -2 -34 3 -32 -2 -54 -16 -75 -23 -35 -24
-22 -4 36 8 23 12 46 9 51 -6 10 15 77 28 94 4 5 8 15 8 21 0 7 11 25 25 40
13 14 22 30 19 35 -3 5 -1 9 4 9 5 0 15 14 22 30 7 17 16 30 20 30 4 0 15 16
26 35 19 35 34 46 34 23z m2055 -18 c10 -11 14 -20 9 -20 -5 0 -15 9 -22 20
-7 11 -11 20 -9 20 2 0 12 -9 22 -20z m-1904 -147 c-11 -21 -20 -33 -21 -26 0
13 33 73 38 68 2 -2 -6 -20 -17 -42z m-153 -33 c-32 -59 -48 -75 -48 -45 0 9
7 18 15 21 8 4 15 12 15 20 0 8 4 14 9 14 5 0 12 11 15 25 4 14 11 25 16 25 5
0 -5 -27 -22 -60z m22 -20 c0 -5 -5 -10 -11 -10 -5 0 -7 5 -4 10 3 6 8 10 11
10 2 0 4 -4 4 -10z m-364 -16 c-3 -9 -6 -18 -6 -20 0 -3 -4 -2 -10 1 -5 3 -10
-2 -11 -12 0 -10 -3 -13 -5 -6 -7 15 13 53 27 53 6 0 8 -7 5 -16z m304 -38 c0
-2 -7 -7 -16 -10 -8 -3 -12 -2 -9 4 6 10 25 14 25 6z m-257 -186 c-3 -12 -8
-19 -11 -16 -5 6 5 36 12 36 2 0 2 -9 -1 -20z m-21 -62 c-7 -7 -12 -8 -12 -2
0 14 12 26 19 19 2 -3 -1 -11 -7 -17z m-2 -22 c0 -3 -4 -8 -10 -11 -5 -3 -10
-1 -10 4 0 6 5 11 10 11 6 0 10 -2 10 -4z m258 -171 c-12 -14 -27 12 -20 37 4
18 5 18 17 -4 7 -14 8 -27 3 -33z m-241 -428 c2 -30 0 -38 -7 -27 -11 17 -14
87 -3 76 4 -4 9 -26 10 -49z m271 -42 c-3 -3 -9 2 -12 12 -6 14 -5 15 5 6 7
-7 10 -15 7 -18z m32 -51 c0 -8 -4 -12 -10 -9 -5 3 -10 10 -10 16 0 5 5 9 10
9 6 0 10 -7 10 -16z m20 -45 c0 -6 -4 -7 -10 -4 -5 3 -10 11 -10 16 0 6 5 7
10 4 6 -3 10 -11 10 -16z m-551 -171 c6 -18 7 -28 2 -23 -10 12 -25 55 -18 55
3 0 10 -15 16 -32z m10 -103 c0 -5 -6 1 -14 15 -8 14 -14 30 -14 35 0 6 6 -1
14 -15 8 -14 14 -29 14 -35z m2641 -259 c0 -2 -8 -10 -17 -17 -16 -13 -17 -12
-4 4 13 16 21 21 21 13z m-35 -46 c-3 -5 -12 -10 -18 -10 -7 0 -6 4 3 10 19
12 23 12 15 0z m-231 -100 c-32 -33 -62 -60 -67 -60 -5 0 9 19 32 43 22 23 51
52 62 65 12 12 24 20 27 17 3 -2 -21 -32 -54 -65z m161 30 c-10 -11 -21 -18
-23 -15 -6 6 31 44 37 39 2 -2 -4 -13 -14 -24z m382 -2 c-20 -30 -72 -87 -61
-68 19 38 66 101 71 96 3 -3 -1 -16 -10 -28z m-452 -58 c-10 -11 -23 -20 -28
-20 -6 0 0 9 13 20 13 11 25 20 28 20 3 0 -3 -9 -13 -20z m-194 -71 c-13 -11
-26 -17 -29 -15 -3 3 6 14 19 25 13 11 26 17 29 14 3 -2 -6 -13 -19 -24z
m-1131 -459 c0 -5 -2 -10 -4 -10 -3 0 -8 5 -11 10 -3 6 -1 10 4 10 6 0 11 -4
11 -10z"/>
<path d="M1790 4061 c0 -5 -10 -13 -22 -18 -35 -12 -108 -57 -108 -65 0 -4 19
4 43 17 23 14 57 33 75 42 31 16 42 33 22 33 -5 0 -10 -4 -10 -9z"/>
<path d="M3415 4003 c3 -3 -2 -15 -12 -25 -9 -11 -11 -18 -5 -18 7 0 12 5 12
11 0 5 4 8 9 5 11 -7 9 21 -2 29 -4 3 -5 2 -2 -2z"/>
<path d="M3450 3981 c0 -6 3 -10 8 -9 11 4 62 -33 57 -42 -2 -4 8 -18 23 -31
l27 -24 -23 26 c-16 18 -20 28 -11 31 7 2 -5 15 -27 28 -52 33 -54 33 -54 21z"/>
<path d="M1630 3965 c-7 -8 -19 -15 -26 -15 -8 0 -14 -4 -14 -10 0 -5 -5 -10
-12 -10 -7 0 -26 -13 -42 -30 -183 -177 -236 -231 -236 -240 0 -5 -5 -10 -11
-10 -5 0 -8 -4 -5 -9 4 -5 0 -12 -6 -14 -10 -4 -10 -6 0 -6 7 -1 15 6 18 14 4
8 10 13 14 10 5 -3 12 0 16 6 5 8 3 9 -6 4 -8 -5 -11 -3 -8 6 3 8 12 13 21 13
9 -1 36 22 59 52 24 29 46 53 50 54 4 0 38 30 76 68 38 37 84 79 103 93 19 15
31 30 28 33 -3 4 -12 0 -19 -9z m-279 -278 c-10 -9 -11 -8 -5 6 3 10 9 15 12
12 3 -3 0 -11 -7 -18z"/>
<path d="M3565 3911 c11 -12 27 -27 36 -32 15 -8 16 -5 6 21 -7 18 -14 25 -18
18 -6 -9 -12 -8 -26 2 -15 12 -15 11 2 -9z"/>
<path d="M2165 3890 c-8 -13 5 -13 25 0 13 8 13 10 -2 10 -9 0 -20 -4 -23 -10z"/>
<path d="M1348 3849 c-12 -13 -14 -19 -5 -19 7 0 18 9 25 20 15 25 3 25 -20
-1z"/>
<path d="M1635 3851 c-35 -22 -93 -81 -79 -81 5 0 20 14 33 30 13 17 29 30 36
30 6 0 20 9 30 20 22 25 18 25 -20 1z"/>
<path d="M1295 3818 c-11 -13 -26 -34 -33 -47 -10 -20 -10 -22 2 -12 11 10 15
8 18 -6 3 -15 8 -12 36 16 34 36 42 57 18 48 -8 -3 -16 1 -18 9 -2 11 -8 10
-23 -8z"/>
<path d="M2047 3725 c-15 -8 -30 -14 -32 -15 -7 0 -6 -10 0 -10 9 -1 65 30 65
35 0 7 -2 6 -33 -10z"/>
<path d="M1815 3720 c-3 -5 1 -10 9 -10 8 0 18 5 21 10 3 6 -1 10 -9 10 -8 0
-18 -4 -21 -10z"/>
<path d="M1425 3663 c-37 -40 -47 -60 -33 -69 6 -4 8 -3 5 3 -3 5 4 20 16 34
35 38 50 59 44 59 -4 0 -18 -12 -32 -27z"/>
<path d="M1951 3681 c-8 -5 -9 -11 -3 -15 5 -3 12 1 16 9 6 17 6 18 -13 6z"/>
<path d="M3640 3626 c0 -2 8 -10 18 -17 15 -13 16 -12 3 4 -13 16 -21 21 -21
13z"/>
<path d="M1850 3609 c0 -5 5 -7 10 -4 6 3 10 8 10 11 0 2 -4 4 -10 4 -5 0 -10
-5 -10 -11z"/>
<path d="M1449 3576 c-12 -14 -27 -22 -33 -19 -6 3 -8 2 -3 -2 4 -5 0 -20 -10
-34 -9 -14 5 -5 32 22 26 26 45 50 42 53 -3 3 -16 -6 -28 -20z"/>
<path d="M1234 3558 c-11 -13 -29 -36 -39 -53 l-18 -30 21 19 c12 11 22 25 22
33 0 7 3 13 8 13 4 0 13 9 20 20 16 26 10 25 -14 -2z"/>
<path d="M1250 3449 c0 -5 5 -7 10 -4 6 3 10 8 10 11 0 2 -4 4 -10 4 -5 0 -10
-5 -10 -11z"/>
<path d="M1480 3399 c0 -5 5 -7 10 -4 6 3 10 8 10 11 0 2 -4 4 -10 4 -5 0 -10
-5 -10 -11z"/>
<path d="M1138 3298 c-21 -40 -36 -74 -34 -76 2 -2 22 31 44 72 22 42 37 76
33 76 -3 0 -23 -33 -43 -72z"/>
<path d="M1040 3331 c-6 -11 -6 -22 -1 -25 5 -3 11 5 13 19 6 30 2 32 -12 6z"/>
<path d="M1199 3278 c-12 -24 -15 -36 -7 -28 15 16 41 70 33 70 -3 0 -14 -19
-26 -42z"/>
<path d="M3448 3160 c9 -16 20 -30 24 -30 4 0 -1 13 -10 30 -9 16 -20 30 -24
30 -4 0 1 -13 10 -30z"/>
<path d="M3480 3085 c1 -6 7 -21 16 -35 l15 -25 -7 25 c-7 26 -24 52 -24 35z"/>
<path d="M4186 3055 c4 -8 10 -12 15 -9 14 8 10 24 -6 24 -9 0 -12 -6 -9 -15z"/>
<path d="M3510 3008 c0 -9 5 -20 10 -23 13 -8 13 5 0 25 -8 13 -10 13 -10 -2z"/>
<path d="M4200 3003 c0 -5 5 -15 10 -23 8 -12 10 -11 10 8 0 12 -4 22 -10 22
-5 0 -10 -3 -10 -7z"/>
<path d="M3526 2955 c4 -8 8 -15 10 -15 2 0 4 7 4 15 0 8 -4 15 -10 15 -5 0
-7 -7 -4 -15z"/>
<path d="M4215 2940 c3 -5 8 -10 11 -10 2 0 4 5 4 10 0 6 -5 10 -11 10 -5 0
-7 -4 -4 -10z"/>
<path d="M3541 2908 c-1 -4 3 -29 9 -55 36 -179 42 -373 15 -530 -2 -13 0 -23
4 -23 10 0 23 66 25 125 0 22 6 43 11 47 6 5 5 8 -3 8 -7 0 -10 5 -7 11 14 21
16 71 4 85 -8 10 -8 14 0 14 6 0 11 5 11 11 0 5 -4 8 -8 5 -4 -3 -8 5 -8 17 0
12 -4 44 -8 70 -6 33 -5 52 3 60 15 15 14 27 -3 27 -9 0 -16 17 -21 46 -6 43
-23 98 -24 82z"/>
<path d="M750 2851 c0 -5 5 -13 10 -16 6 -3 10 -2 10 4 0 5 -4 13 -10 16 -5 3
-10 2 -10 -4z"/>
<path d="M747 2809 c4 -13 8 -18 11 -10 2 7 -1 18 -6 23 -8 8 -9 4 -5 -13z"/>
<path d="M3610 2803 c0 -5 5 -15 10 -23 7 -12 9 -10 7 8 -1 19 -17 33 -17 15z"/>
<path d="M3627 2684 c3 -44 5 -91 6 -106 0 -15 4 -25 9 -22 5 3 6 31 3 62 -3
32 -7 74 -9 95 -7 73 -15 48 -9 -29z"/>
<path d="M715 2631 c-3 -5 -2 -12 3 -15 5 -3 9 1 9 9 0 17 -3 19 -12 6z"/>
<path d="M3551 2243 c-7 -27 -16 -64 -21 -83 -5 -19 -10 -38 -10 -42 -4 -21
-128 -249 -144 -263 -7 -5 -21 -26 -33 -45 -12 -19 -30 -44 -40 -55 -10 -11
-25 -29 -33 -40 -14 -19 -14 -19 6 -2 11 9 23 14 27 11 3 -3 18 14 33 38 15
23 38 56 50 71 55 66 150 259 158 320 3 18 9 43 14 57 17 45 23 80 13 80 -4 0
-14 -21 -20 -47z"/>
<path d="M1519 2094 c12 -19 19 -40 16 -45 -4 -5 1 -6 9 -3 13 5 11 12 -11 45
-32 49 -42 51 -14 3z"/>
<path d="M1320 2021 c0 -11 4 -22 9 -25 4 -3 6 6 3 19 -5 30 -12 33 -12 6z"/>
<path d="M1590 1986 c0 -2 8 -10 18 -17 15 -13 16 -12 3 4 -13 16 -21 21 -21
13z"/>
<path d="M1610 1932 c0 -5 7 -15 15 -22 8 -7 15 -8 15 -2 0 5 -7 15 -15 22 -8
7 -15 8 -15 2z"/>
<path d="M1454 1885 c8 -8 18 -15 22 -15 3 0 1 7 -6 15 -7 8 -17 15 -22 15 -5
0 -3 -7 6 -15z"/>
<path d="M1564 1771 c20 -22 26 -25 26 -13 0 4 -10 13 -22 21 -23 14 -23 14
-4 -8z"/>
<path d="M1690 1756 c0 -2 8 -10 18 -17 15 -13 16 -12 3 4 -13 16 -21 21 -21
13z"/>
<path d="M3245 1680 c-8 -13 5 -13 25 0 13 8 13 10 -2 10 -9 0 -20 -4 -23 -10z"/>
<path d="M3195 1635 c-36 -30 -25 -33 15 -5 15 11 31 16 35 12 5 -4 5 -1 1 6
-10 17 -16 15 -51 -13z"/>
<path d="M3040 1485 c-19 -14 -29 -25 -23 -25 7 0 15 5 18 10 4 6 15 8 24 5
11 -3 24 2 32 12 11 15 11 16 -1 6 -20 -18 -35 -16 -20 2 18 22 9 19 -30 -10z"/>
<path d="M2995 1450 c3 -4 -5 -16 -17 -26 -15 -14 -22 -16 -25 -6 -3 6 -9 10
-14 7 -5 -4 -3 -12 3 -19 11 -11 17 -11 38 3 14 8 27 18 30 22 3 3 12 8 20 11
9 3 5 7 -12 10 -15 3 -25 2 -23 -2z"/>
<path d="M2901 1401 c-11 -7 -9 -10 8 -16 13 -4 25 -4 28 -1 4 3 -1 6 -11 6
-9 0 -14 5 -11 10 8 12 4 12 -14 1z"/>
<path d="M2819 1323 c-13 -16 -12 -17 4 -4 16 13 21 21 13 21 -2 0 -10 -8 -17
-17z"/>
<path d="M2745 1290 c-3 -6 1 -7 9 -4 18 7 21 14 7 14 -6 0 -13 -4 -16 -10z"/>
<path d="M3450 1250 c0 -5 5 -10 10 -10 6 0 10 5 10 10 0 6 -4 10 -10 10 -5 0
-10 -4 -10 -10z"/>
<path d="M3430 1210 c-8 -5 -12 -12 -9 -15 4 -3 12 1 19 10 14 17 11 19 -10 5z"/>
<path d="M2721 1101 l-25 -19 27 5 c15 3 27 12 27 19 0 17 0 17 -29 -5z"/>
<path d="M2765 1110 c-3 -6 1 -7 9 -4 18 7 21 14 7 14 -6 0 -13 -4 -16 -10z"/>
<path d="M2665 1070 c-3 -6 1 -7 9 -4 18 7 21 14 7 14 -6 0 -13 -4 -16 -10z"/>
<path d="M2865 1043 c-16 -10 -36 -18 -43 -19 -20 -3 -28 -14 -11 -14 22 0 88
25 101 38 18 18 -11 15 -47 -5z"/>
<path d="M3030 1025 c-14 -8 -20 -14 -15 -14 6 0 21 6 35 14 14 8 21 14 15 14
-5 0 -21 -6 -35 -14z"/>
</g>
</svg>
